/* XPM */
static char *logo[] = {
/* columns rows colors chars-per-pixel */
"80 78 209 2",
"   c #0F6FAE",
".  c #0F70AF",
"X  c #1274B2",
"o  c #1379B7",
"O  c #157CB9",
"+  c #1D7DBA",
"@  c #227EBC",
"#  c #1781BE",
"$  c #1B81BD",
"%  c #1985C1",
"&  c #1D8BC6",
"*  c #1D8FCA",
"=  c #1E91CC",
"-  c #2086C2",
";  c #2A84C1",
":  c #2789C5",
">  c #2C89C5",
",  c #298EC9",
"<  c #3189C6",
"1  c #328EC9",
"2  c #398DC9",
"3  c #2393CD",
"4  c #3292CD",
"5  c #3F91CC",
"6  c #2297D0",
"7  c #239BD4",
"8  c #2D9BD5",
"9  c #249FD8",
"0  c #2C9FD8",
"q  c #3F95D0",
"w  c #349CD6",
"e  c #3C9CD6",
"r  c #319FD8",
"t  c #3A9FD9",
"y  c #26A4DC",
"u  c #2BA4DC",
"i  c #2FA8DF",
"p  c #34A4DB",
"a  c #3CA4DC",
"s  c #35A8DE",
"d  c #3BA9DE",
"f  c #2BABE2",
"g  c #33AEE3",
"h  c #3BACE2",
"j  c #37B0E5",
"k  c #3BB1E6",
"l  c #3EB3E8",
"z  c #4191CD",
"x  c #4695D0",
"c  c #4997D1",
"v  c #429CD5",
"b  c #4B9DD6",
"n  c #439ED8",
"m  c #4A9FD8",
"M  c #44A3DB",
"N  c #4CA3DB",
"B  c #42A9DF",
"V  c #53A4DC",
"C  c #59A6DD",
"Z  c #5EA8DF",
"A  c #4FB0DF",
"S  c #52B1DD",
"D  c #5DB3DB",
"F  c #65B4D8",
"G  c #66B8DD",
"H  c #6EB8DB",
"J  c #73B9DC",
"K  c #7ABEDE",
"L  c #43AEE1",
"P  c #4AADE3",
"I  c #54ABE1",
"U  c #5AACE2",
"Y  c #43B3E5",
"T  c #4BB5E6",
"R  c #4DB9E7",
"E  c #44B4E9",
"W  c #4BB6EA",
"Q  c #4EB8EB",
"!  c #56B3E2",
"~  c #5AB2E6",
"^  c #52BAE7",
"/  c #59BCE6",
"(  c #52B7EB",
")  c #5DB6EA",
"_  c #54BAEC",
"`  c #5BBDED",
"'  c #5DBDF0",
"]  c #63AEE4",
"[  c #64B1E6",
"{  c #6AB2E7",
"}  c #64BEE5",
"|  c #6ABAE3",
" . c #6CB4E9",
".. c #61BBEE",
"X. c #6BBBED",
"o. c #74BBE3",
"O. c #7BBDE3",
"+. c #70B6EB",
"@. c #74BAED",
"#. c #79BDED",
"$. c #62BFF1",
"%. c #69BFF0",
"&. c #72BEF1",
"*. c #79BDF0",
"=. c #5FC0E9",
"-. c #64C1EC",
";. c #6CC4EC",
":. c #74C4EB",
">. c #7BC1EC",
",. c #76C8ED",
"<. c #7BCBEE",
"1. c #65C0F2",
"2. c #6CC2F4",
"3. c #73C5F5",
"4. c #7BC3F5",
"5. c #77C8F4",
"6. c #7DCAF3",
"7. c #77C7F8",
"8. c #79C7F8",
"9. c #7DC9F9",
"0. c #80BFE1",
"q. c #85C3DE",
"w. c #8EC7DF",
"e. c #8FC8DF",
"r. c #83C1E3",
"t. c #89C5E1",
"y. c #87C8E4",
"u. c #8BC9E3",
"i. c #81C2ED",
"p. c #8BC7EB",
"a. c #82CEEE",
"s. c #8CCCEC",
"d. c #93CCE4",
"f. c #9BCEE4",
"g. c #98CEED",
"h. c #87D0EF",
"j. c #8AD1EF",
"k. c #9CD1E5",
"l. c #94D2EC",
"z. c #9DD4EB",
"x. c #82C4F5",
"c. c #84CDF4",
"v. c #89CEF6",
"b. c #87C7F8",
"n. c #84CBFA",
"m. c #8CCDFC",
"M. c #93CCF2",
"N. c #98CFF2",
"B. c #92CFFC",
"V. c #8CD1F3",
"C. c #8FD0FA",
"Z. c #93D3F4",
"A. c #99D6F4",
"S. c #9ED9F2",
"D. c #93D1FE",
"F. c #9BD4FD",
"G. c #A1D2E6",
"H. c #A8D6E7",
"J. c #A3D5EB",
"K. c #A9D5E9",
"L. c #A6D9EC",
"P. c #ABDAEA",
"I. c #B4DAEA",
"U. c #BBDDEC",
"Y. c #A2D5F5",
"T. c #A8D7F6",
"R. c #A4DBF3",
"E. c #ABDDF4",
"W. c #A1D7FE",
"Q. c #A4D8FD",
"!. c #ACDCFC",
"~. c #B2DEF3",
"^. c #BBDEF1",
"/. c #B2DEFD",
"(. c #B6E1EE",
"). c #BEE1EF",
"_. c #B4E1F5",
"`. c #BBE4F5",
"'. c #BEE8F3",
"]. c #B6E1FB",
"[. c #BBE3FD",
"{. c #C1DFEC",
"}. c #C4E1ED",
"|. c #CDE5EF",
" X c #C3E4F2",
".X c #CBE6F1",
"XX c #C5EAF5",
"oX c #CCEBF5",
"OX c #C3E6FD",
"+X c #C3E8FD",
"@X c #CCEBFB",
"#X c #D4EBF4",
"$X c #DBEDF4",
"%X c #D2EDFB",
"&X c #CEF4FB",
"*X c #D6F0F7",
"=X c #DDF1F7",
"-X c #D4F4FC",
";X c #DBF2FB",
":X c #D6F9FF",
">X c #DBFAFF",
",X c #E0F1F7",
"<X c #E4F5FC",
"1X c #E9F7FD",
"2X c #E4FBFF",
"3X c #EBFBFF",
"4X c #F4FDFF",
"5X c #FAFEFF",
"6X c None",
/* pixels */
"6X6X6X6X6X6X6X6X6X6X6X6X6X6X6X6X6X6X6X6X6X6X6X6X6X6X6X6X6X6X6X6X6X6X6X6X6X6X6X6X6X6X6X6X6X6X6X6X6X6X6X6X6X6X6X6X6X6X6X6X6X6X6X6X6X6X6X6X6X6X6X6X6X6X6X6X6X6X6X6X",
"6X6X6X6X6X6X6X6X6X6X6X6X6X6X6X6X6X6X6X6X6X6X6X6X6X6X6X6X6X6X6X6X6X6X6X6X6X6X6X6X6X6X6X6X6X6X6X6X6X6X6X6X6X6X6X6X6X6X6X6X6X6X6X6X6X6X6X6X6X6X6X6X6X6X6X6X6X6X6X6X",
"6X6X6X6X6X6X6X6X6X6X6X6X6X6X6X6X6X6X6X6X6X6X6X6X6X6X6X6X6X6X6X6X6X6Xm.B.D.D.F.F.F.F.W.W.Q.!.6X6X6X6X6X6X6X6X6X6X6X6X6X6X6X6X6X6X6X6X6X6X6X6X6X6X6X6X6X6X6X6X6X6X",
"6X6X6X6X6X6X6X6X6X6X6X6X6X6X6X6X6X6X6X6X6X6X6X6X6X6X6X6X6X6Xx.b.B.B.B.B.D.D.D.B.D.D.B.D.D.F.F.W.!./.6X6X6X6X6X6X6X6X6X6X6X6X6X6X6X6X6X6X6X6X6X6X6X6X6X6X6X6X6X6X",
"6X6X6X6X6X6X6X6X6X6X6X6X6X6X6X6X6X6X6X6X6X6X6X6X6X6X6X*.b.m.B.D.D.D.D.D.D.B.D.D.D.D.D.B.D.D.D.D.B.D.F.!./.6X6X6X6X6X6X6X6X6X6X6X6X6X6X6X6X6X6X6X6X6X6X6X6X6X6X6X",
"6X6X6X6X6X6X6X6X6X6X6X6X6X6X6X6X6X6X6X6X6X6X6X6X{ *.b.B.D.D.D.B.m.x.>. .] U I I I S U ]  .#.x.m.D.D.D.B.F.Q./.6X6X6X6X6X6X6X6X6X6X6X6X6X6X6X6X6X6X6X6X6X6X6X6X6X",
"6X6X6X6X6X6X6X6X6X6X6X6X6X6X6X6X6X6X6X6X6X6XU #.b.D.D.D.B.b.@.I M w p p d h L L Y B d s p 0 8 v U +.b.B.D.B.B.W./.6X6X6X6X6X6X6X6X6X6X6X6X6X6X6X6X6X6X6X6X6X6X6X",
"6X6X6X6X6X6X6X6X6X6X6X6X6X6X6X6X6X6X6X6X6X .b.D.D.D.B.*.U t p L / ,.h.j.l.A.l.A.l.j.h.a.,.;.=.T s 0 e V @.m.D.D.D.Q.[.6X6X6X6X6X6X6X6X6X6X6X6X6X6X6X6X6X6X6X6X6X",
"6X6X6X6X6X6X6X6X6X6X6X6X6X6X6X6X6X6X6XC *.B.B.D.m.:.B p B -.j.S.R.E.S.S.R.S.S.L.S.l.Z.j.a.a.<.,.,.=.A s 8 n { v.D.D.F.!.OX6X6X6X6X6X6X6X6X6X6X6X6X6X6X6X6X6X6X6X",
"6X6X6X6X6X6X6X6X6X6X6X6X6X6X6X6X6X6X] m.D.B.B.*.P d S h.R.E.E.R.R._.XX#X<X1X1X1X3X<X<X*XoX(.l.<.,.;.-.-.R d 8 M +.B.B.B.W./.6X6X6X6X6X6X6X6X6X6X6X6X6X6X6X6X6X6X",
"6X6X6X6X6X6X6X6X6X6X6X6X6X6X6X6X6X .B.B.D.b.[ d ^ s.R.E.E._..XXXL.,X5X5X5X5X5X5X5X5X5X5X5X5X<X<.l.S.,.-.-.=.Y g 8 N x.B.B.F./.6X6X6X6X6X6X6X6X6X6X6X6X6X6X6X6X6X",
"6X6X6X6X6X6X6X6X6X6X6X6X6X6X6Xx *.D.B.B.4.P Y <.R.E.E._.oX<X4X%XJ.,X5X5X5X5X5X5X5X5X5X5X5X5X1X,.k.3X<X_.<.=.=.^ Y u w { m.B.F./.@X6X6X6X6X6X6X6X6X6X6X6X6X6X6X6X",
"6X6X6X6X6X6X6X6X6X6X6X6X6X6Xc *.D.D.B.%.d =.S.E.E._.#X1X4X5X5X*Xz.$X5X5X5X5X5X5X5X5X5X5X5X5X<X,.f.3X3X4X3X`.,.R R R j 8 I b.B.B.!.@X6X6X6X6X6X6X6X6X6X6X6X6X6X6X",
"6X6X6X6X6X6X6X6X6X6X6X6X6Xx 4.D.D.B...L <.E.E.E. X,X4X4X4X4X4X%Xz.$X5X5X5X5X5X5X5X5X5X5X5X5X1X:.d.3X3X3X3X4X1XR.=.Y Y j 8 m b.D.B.!.@X6X6X6X6X6X6X6X6X6X6X6X6X6X",
"6X6X6X6X6X6X6X6X6X6X6X6Xz *.B.D.m.) T j.E.E.I.#X4X4X4X4X4X4X4X@Xz.$X5X5X5X5X5X5X5X5X5X5X5X5X1X:.e.3X3X3X3X3X3X4XoX;.T Y k u v 4.B.B.!.%X6X6X6X6X6X6X6X6X6X6X6X6X",
"6X6X6X6X6X6X6X6X6X6X6X6X+.m.B.B.` R l.E.E.(.,X4X4X5X4X4X4X4X4X*Xl.#X5X5X5X5X5X5X5X5X5X5X5X5X1X:.e.3X4X3X3X3X3X3X3X2Xj.Y l h u v x.D.B./.6X6X6X6X6X6X6X6X6X6X6X6X",
"6X6X6X6X6X6X6X6X6X6X6X] m.m.D...^ A.~.E.}.1X4X4X4X4X4X4X4X4X4X@Xd.$X5X5X5X5X5X5X5X5X5X5X5X5X,X;.e.3X3X3X3X3X3X3X3X3X3XR.T k j i v b.B.D.[.6X6X6X6X6X6X6X6X6X6X6X",
"6X6X6X6X6X6X6X6X6X6XV b.m.D.2.R A.E.P.}.3X4X4X4X4X4X4X4X4X4X4X@Xl.$X5X5X5X5X5X5X5X5X5X5X5X5X,X;.e.3X3X3X3X3X3X3X3X3X3X3XR.E k j p m m.B.F.OX6X6X6X6X6X6X6X6X6X6X",
"6X6X6X6X6X6X6X6X6Xz 4.m.m.9.W V.E.E.}.1X5X4X4X4X4X4X4X4X4X4X4X@Xs.#X5X5X5X5X3X1X1X1X4X5X5X5X<X;.w.3X3X3X3X3X3X3X3X2X3X2X3XR.Y k j 0 U B.B.Q.%X6X6X6X6X6X6X6X6X6X",
"6X6X6X6X6X6X6X6X6X[ n.m.m._ <.~.E.).3X4X4X4X4X4X4X4X4X4X4X4X4XXXs.|.,X}.I.f.d.u.w.w.d.f.U.$X;X;.q.3X3X3X3X3X2X3X3X3X3X3X3X3XS.k h g w +.D.D./.6X6X6X6X6X6X6X6X6X",
"6X6X6X6X6X6X6X6XN 9.n.m.1.1.E.~.(.,X4X4X4X4X4X4X4X4X4X3X4X4X4XoXs.f.u.<.<.,.,.,.;.;.-.} } } u.-.q.3X3X3X3X3X3X3X3X3X3X3X3X3X2Xh.k k g e b.B.F.OX6X6X6X6X6X6X6X6X",
"6X6X6X6X6X6X6X6XX.m.m.8.=.R.E.I.$X4X4X4X4X4X4X4X3X4X4X4X3X3X#XE.h.a.h.<.<.,.,.;.:.;.;.-.1.=.` / G k.*X3X3X3X3X3X2X2X3X2X2X3X3X;X..k k p U B.B.!.6X6X6X6X6X6X6X6X",
"6X6X6X6X6X6X6Xm 9.n.m.=.a.~.E.|.4X4X4X4X4X4X4X4X4X4X4X4X<X(.l.c.h.a.<.<.,.,.:.;.;.;.-.-.=.=.=.=./ ^ H I.3X3X3X3X2X3X3X3X3X3X2X3X XE k k e #.B.B.OX6X6X6X6X6X6X6X",
"6X6X6X6X6X6X6XX.9.n.7.1.E.E.U.1X4X4X4X4X4X3X4X4X4X3X4X=XP.V.h.V.a.c.<.<.,.,.:.;.;.;.-.-.=.=._ _ =.Q ^ D k.;X3X3X3X2X2X3X2X3X3X3X3Xv.k h h N B.B.!.6X6X6X6X6X6X6X",
"6X6X6X6X6X6Xb 9.9.m.` Z._.~.#X4X4X4X4X4X4X4X3X4X4X4X=XR.V.j.h.h.c.<.<.<.,.;.;.;.;.;.-.-.=.=.=._ / _ _ R S w.<X3X3X2X2X2X3X2X3X2X3X*X_ l l t #.B.F.OX6X6X6X6X6X6X",
"6X6X6X6X6X6XU 9.n.8.;.~._.}.3X4X4X4X4X4X4X4X4X3X4X;XR.V.j.V.c.a.c.<.6.,.,.,.,.2.;.-.-.-.=.` =._ _ _ _ _ R A w.<X3X3X3X2X2X3X2X3X3X3XS.E E h I B.B./.6X6X6X6X6X6X",
"6X6X6X6X6X2 %.8.v.1.V._.~.#X4X4X4X4X3X4X4X3X4X3X1XE.Z.V.V.h.h.c.<.<.<.,.,.;.;.;.-.-.-...=.` ` ` _ _ _ ^ _ R A f.2X3X3X3X2X3X2X3X2X3X;X/ E E e x.B.F.@X6X6X6X6X6X",
"6X6X6X6X6Xm 8.7.n.1.E._.).3X3X4X4X3X4X4X4X3X4X4X`.Z.Z.j.V.h.c.a.a.6.5.,.6.V.Z.A.A.V.6.;.1.' _ ` =._ _ _ _ Q Q S U.3X3X2X3X2X3X2X3X2X3XZ.E E a ] D.D.[.6X6X6X6X6X",
"6X6X6X6X6XU 3.9.5.6._._..X4X4X4X3X4X4X4X3X4X4X*XA.V.j.V.V.h.a.6.<.s.E.oX<X3X4X5X4X4X4X<X@XR.5.` _ _ _ _ _ _ _ W H *X3X3X2X3X2X2X3X2X3X@X( W E m B.B.!.6X6X6X6X6X",
"6X6X6X6X< %.3.c.2.S.`.~.=X4X3X4X3X4X3X4X4X3X3XE.Z.Z.V.V.h.c.c.a.>.{.5X5X5X5X5X5X5X5X5X5X5X5X;X;.=._ _ ' _ _ _ _ A k.2X3X3X2X2X3X2X3X3X2X3.Q Q v x.B.F.@X6X6X6X6X",
"6X6X6X6Xx 2.3.n.;.~.].(.3X3X4X4X4X3X4X3X3X4X@XZ.Z.V.V.V.c.c.c.6.,.}.5X5X4X5X4X5X5X4X5X5X5X5X>X;.' _ ' _ _ _ _ _ ^ F *X3X2X3X3X2X3X2X2X4XA.Q _ L  .D.F.OX6X6X6X6X",
"6X6X6X6XN 2.3.c.6._._..X4X4X4X3X3X4X3X4X4X3XE.Z.Z.j.V.V.h.c.c.6.>.}.5X5X5X5X5X4X5X5X4X4X5X5X<X2.' =.' ' _ ' _ _ _ ! H.3X2X2X2X3X2X2X3X3X+X_ _ P U B.B./.6X6X6X6X",
"6X6X6X6XS 2.3.6.V.].~.#X4X4X3X4X4X3X3X3X3X;XA.Z.Z.V.V.h.v.v.v.6.>.}.5X5X5X4X5X5X5X4X5X5X5X5X<X2.` ` ' ' ' ' _ _ ' ( K >X2X2X3X2X2X3X2X3X:X-._ ( I m.B.!.6X6X6X6X",
"6X6X6X6X~ 1.9.<.A.].I.<X3X3X4X3X3X3X4X4X4XXXZ.Z.Z.V.v.v.6.h.6.6.:.}.5X4X5X5X5X4X5X4X5X4X4X5X<X;.$.$.$.' ' ' ' ' ' _ G oX3X2X3X2X2X3X2X3X2Xc._ ' n b.B.W.6X6X6X6X",
"6X6X6X; ) 1.9.5.R.].I.2X3X4X3X4X3X4X3X3X3XE.Z.D.V.V.V.v.v.6.c.6.K }.5X5X5X5X5X4X5X5X5X4X5X5X<X3.1.' ..=.$.' $.' ' ' ! P.3X2X2X2X2X2X3X2X3XZ.' ' N *.B.F.OX6X6X6X",
"6X6X6X1 ) $.c.5.E._.I.3X4X3X3X4X3X3X3X3X2XY.Z.Z.V.C.v.v.v.h.6.c.:.}.5X4X4X4X5X5X4X5X5X5X4X5X<X3.1.1.1.1.$.$.$.$.$.$.~ f.3X2X3X2X3X2X2X2X3XE.' ' P *.B.F.OX6X6X6X",
"6X6X6X1 ) $.n.9.E._.U.3X3X3X3X3X3X3X3X3X>XA.D.V.V.V.v.v.V.6.6.6.o.{.5X4X5X5X4X5X4X5X5X5X5X4X<X5.1.1.1.1.1.1.1.$.1.1.) q.2X2X2X3X2X2X2X2X3X].1.1.I  .D.D.[.6X6X6X",
"6X6X6X2 ' ' c.c.].!.U.3X3X3X3X3X3X3X3X3X:XZ.Z.Z.C.V.V.9.n.c.c.9.O.{.5X4X4X5X4X5X5X5X4X4X4X5X<X5.1.1.1.2.1.1.$.$.1.1...K 2X2X2X2X3X2X2X3X3X[.1.1.U { m.D.[.6X6X6X",
"6X6X6X4 ` ' c.c././.U.3X3X3X3X3X3X3X3X3X&XZ.Z.Z.C.V.C.V.V.6.n.c.:.U.5X4X5X4X5X4X5X4X5X4X5X5X<X5.2.2.2.2.2.2.2.2.1.2.;.K >X2X2X2X2X2X2X2X3X+X2.2.I { m.D.].6X6X6X",
"6X6X6X1 _ ' c.v.E.E.U.3X3X3X3X3X3X3X3X3X:XA.C.C.V.C.V.9.n.v.6.9.O.U.5X5X4X5X4X5X5X4X4X4X5X4X<X6.2.2.2.2.2.2.2.2.2.2...K >X2X2X2X2X2X2X2X3X+X2.2.~ [ m.C.].6X6X6X",
"6X6X6X1 _ _ c.m.E./.I.3X3X3X3X2X3X3X3X3X-XD.Z.Z.C.C.v.v.c.c.c.c.:.U.5X5X4X5X4X4X4X4X5X4X5X5X<X8.2.2.2.2.2.2.2.3.2.3.1.q.2X2X2X2X2X2X2X>X3XXX3.2.~ { m.C.].6X6X6X",
"6X6X6X> ( _ 6.m.!.!.I.2X3X3X3X3X3X2X2X3X>XZ.Z.D.V.C.v.v.v.n.n.9.#.U.5X4X5X4X4X5X5X4X5X4X4X4X<Xn.7.7.7.&.7.3.3.3.3.3.X.t.2X2X>X2X2X2X2X2X3X[.2.3.I  .m.m./.6X6X6X",
"6X6X6X; W _ 6.V.E.!.K.<X3X3X2X2X2X3X2X2X<XQ.D.Z.C.C.m.v.m.n.c.c.o.U.5X5X4X4X5X4X4X4X5X5X4X5X<Xn.7.7.7.7.7.7.7.3.3.7...G.3X2X2X2X2X2X2X>X3X/.3.7.I %.n.C.].6X6X6X",
"6X6X6X@ P _ 5.V.T.!.J.*X2X2X3X2X2X2X2X2X3X!.Z.m.C.C.v.C.m.c.m.n.#.U.5X4X5X4X4X4X4X5X4X4X4X5X<Xb.7.7.7.7.7.7.7.7.7.7.| ~.2X>X2X2X2X2X2X2X3XS.7.7.V *.n.C./.6X6X6X",
"6X6X6X6Xh Q %.Z.F./.z.oX2X2X2X2X2X2X2X2X3XOXD.Z.C.C.C.v.m.m.n.m.:.U.5X4X4X4X4X5X5X4X5X1X5X5X<Xb.9.7.8.9.9.9.8.8.5.3.H *X>X>X2X2X2X>X2X2X2XD.8.4.V 4.n.m.6X6X6X6X",
"6X6X6X6Xt Q ` D.A.].Y.).3X2X2X2X2X2X2X2X2X;XD.C.D.C.C.v.v.v.m.n.o.U.5X4X5X4X4X4X5X4X4X4X5X5X1Xm.9.9.9.9.9.9.9.9.9.3.t.>X2X2X>X2X<X2X2X2X>Xb.9.3.V 8.n.D.6X6X6X6X",
"6X6X6X6X4 W ^ Z.D.E.T.K.2X2X2X2X>X2X2X>X>X2X~.D.D.C.C.m.m.m.n.C.>.I.5X4X4X4X4X4X1X1X5X5X4X4X<Xb.9.9.9.9.9.9.n.9.n.| I.2X>X2X2X>X2X>X2X2X@Xb.n.%.I 9.9.A.6X6X6X6X",
"6X6X6X6X> E E c.D.Q.!.d.*X2X2X2X2X>X2X>X2X3X%XD.C.C.C.C.m.m.m.m.:.U.5X4X4X4X4X5X5X5X5X4X4X5X<XB.n.n.9.n.n.9.n.n.4.K -X>X2X2X>X2X2X>X2X2X/.n.n.] ] 9.n.F.6X6X6X6X",
"6X6X6X6X+ h E 2.A.Q.!.g.).3X>X2X2X>X2X2X>X2X2X!.D.D.m.C.m.C.m.C.#.I.5X4X4X4X4X5X4X4X4X4X4X5X<XD.n.n.n.n.n.n.n.n.+.P.2X2X>X>X2X2X>X2X2X<XD.n.n.V %.8.b.W.6X6X6X6X",
"6X6X6X6X6Xw E _ A.F.!.F.G.>X2X>X>X2X>X>X>X>X2X:XA.B.C.D.C.C.C.m.>.I.5X4X5X4X4X4X5X4X4X5X4X4X<XD.n.n.n.m.n.n.m.5.q.>X>X2X>X2X>X>X2X>X2X@Xm.m.4.N 3.8.m.6X6X6X6X6X",
"6X6X6X6X6X, E E h.F.Q.!.d.oX>X2X>X>X>X>X>X2X>X3XXXD.D.D.C.m.m.m.>.I.4X4X4X4X4X4X4X4X4X4X4X4X1XD.n.n.m.m.n.m.n.K .X>X2X>X>X2X2X>X>X2X3X!.n.C.[ U 3.5.V.6X6X6X6X6X",
"6X6X6X6X6X+ h l -.F.Q.Q.N.G.>X>X2X>X>X>X>X>X>X>X<X].D.C.D.D.D.D.>.I.5X4X4X4X4X4X4X4X4X4X4X5X1XD.m.m.m.m.m.m.o.P.>X>X>X>X>X>X>X2X>X2X;XD.m.n.V %.3.8.D.6X6X6X6X6X",
"6X6X6X6X6X6Xw l W Z.F.Q.W.t.XX2X>X>X>X>X>X>X>X>X>X<X/.D.D.D.D.D.#.I.5X4X4X4X4X4X4X4X4X4X4X5X<XD.m.m.m.m.m.#.H.>X>X2X>X>X>X>X>X2X>X3X].m.m.*.N 3.3.n.6X6X6X6X6X6X",
"6X6X6X6X6X6X- h k 2.Y.W.Q.N.f.>X>X>X>X>X:X>X>X>X>X>X<X/.D.D.B.D.i.I.5X4X4X4X4X4X4X4X4X4X4X4X1XF.m.B.m.m.O.P.>X>X>X>X>X2X>X2X>X>X>X;XD.B.m.V ) 2.3.c.6X6X6X6X6X6X",
"6X6X6X6X6X6X6X0 k E Z.F.Q.W.r.(.>X>X>X>X>X>X>X:X>X>X>X2XOXF.B.D.>.I.4X4X4X4X4X4X4X4X4X4X4X4X<XF.B.B.b.r.(.>X>X>X>X>X>X>X>X>X>X>X<X!.B.B.*.N 2.2.5.6X6X6X6X6X6X6X",
"6X6X6X6X6X6X6X- h k ;.Q.F.W.F.q.&X>X:X>X:X:X:X>X:X:X:X>X2X-X!.D.>.I.5X4X4X4X4X4X4X4X4X4X4X4X1XF.m.v.G.@X>X>X>X>X>X>X>X>X>X>X>X3X@XD.B.m.N ~ 2.2.8.6X6X6X6X6X6X6X",
"6X6X6X6X6X6X6X6X0 j l V.F.F.Q.v.d.-X>X:X>X:X>X:X:X:X>X:X:X>X2X[.i.I.5X4X4X4X4X4X4X4X4X4X4X4X<XF.0.'.:X>X:X>X>X>X>X>X>X>X>X>X>X-XF.B.B.{ N $.$.3.6X6X6X6X6X6X6X6X",
"6X6X6X6X6X6X6X6X$ g h _ R.F.W.F.r.G.:X>X:X:X:X:X:X:X:X:X:X:X>X+X>.I.4X4X4X4X4X4X4X4X4X4X4X4X1XN.K -X>X>X>X>X>X:X>X>X>X>X>X>X;X!.B.B.x.b ' $.2.3.6X6X6X6X6X6X6X6X",
"6X6X6X6X6X6X6X6X6X3 j g ;.Y.F.F.F.o.P.>X>X:X:X:X:X:X:X:X:X:X>X+X>.I.5X4X3X4X4X4X4X4X4X4X4X4X2XB.K :X>X-X:X>X>X>X>X>X>X:X>X;X!.B.B.m.V P $.$.%.6X6X6X6X6X6X6X6X6X",
"6X6X6X6X6X6X6X6X6XX u g h c.W.F.F.B.K P.:X:X:X:X:X:X:X:X:X:X:X+X#.I.4X4X4X4X4X4X4X4X4X4X4X4X1XB.K -X>X:X:X>X:X>X>X:X>X>X*X!.B.D.B.] P ' ' $.$.6X6X6X6X6X6X6X6X6X",
"6X6X6X6X6X6X6X6X6X6X+ g g E V.F.F.F.B.J L.:X:X:X:X:X:X:X:X:X:X+X>.I.4X4X4X4X4X4X4X3X4X4X4X4X1XB.K -X:X>X>X:X>X>X:X>X>X%XT.D.D.D. .n _ ' ' $.6X6X6X6X6X6X6X6X6X6X",
"6X6X6X6X6X6X6X6X6X6X6X& f g R Z.F.D.D.B.J k.&X:X:X:X:X:X:X:X:X[.>.I.4X4X4X4X4X3X4X4X4X4X4X4X1XN.O.-X:X:X:X>X:X:X>X>XXXY.D.D.D.+.v ( ' _ ) 6X6X6X6X6X6X6X6X6X6X6X",
"6X6X6X6X6X6X6X6X6X6X6X6X3 g f R A.D.D.F.D.o.q.XX:X:X:X:X-X:X>X+X>.I.4X4X3X4X4X4X4X4X3X4X4X4X<XB.K -X:X>X:X:X:X:X-X_.N.B.D.B.+.M Q _ _ ` 6X6X6X6X6X6X6X6X6X6X6X6X",
"6X6X6X6X6X6X6X6X6X6X6X6XX 7 g f R Z.F.D.D.D.<.J S.&X:X:X:X:X:X+X#.I.4X4X4X4X4X4X4X4X4X4X4X4X2XD.K :X:X:X:X>X:XXXJ.M.D.D.B. .n T Q _ ( W 6X6X6X6X6X6X6X6X6X6X6X6X",
"6X6X6X6X6X6X6X6X6X6X6X6X6XX 6 f f E V.A.D.D.D.m.o.q._.:X:X:X:X'.>.I.4X4X4X4X4X4X4X4X3X4X4X4X<XN.O.-X:X:X:XXXP.v.m.D.D.B.] t W Q Q T P 6X6X6X6X6X6X6X6X6X6X6X6X6X",
"6X6X6X6X6X6X6X6X6X6X6X6X6X6XX 6 g f k 5.A.D.D.D.D.x.J q.E.&X:X+X#.I.4X4X4X4X4X4X4X4X4X4X4X4X2XB.K :X:X'.k.p.m.B.D.D.b.V a W W Q W L 6X6X6X6X6X6X6X6X6X6X6X6X6X6X",
"6X6X6X6X6X6X6X6X6X6X6X6X6X6X6XX = f f f =.V.D.D.D.D.C.x.J K L.].>.I.4X4X4X4X4X4X4X4X4X4X4X5X1XB.H H.u.i.b.B.B.D.B.+.n h E W W Y t 6X6X6X6X6X6X6X6X6X6X6X6X6X6X6X",
"6X6X6X6X6X6X6X6X6X6X6X6X6X6X6X6X6X& i f i Y ,.D.D.D.D.D.D.b.>.Z.i.q.U.#X*X<X3X1X3X3X,X=X#XU.^.F.o.>.m.D.D.D.B.x.I a Y E E E h 6X6X6X6X6X6X6X6X6X6X6X6X6X6X6X6X6X",
"6X6X6X6X6X6X6X6X6X6X6X6X6X6X6X6X6X6X# y f f f R <.C.D.D.D.D.D.B.m.x.>.o.K O.r.t.q.q.0.O.#.>.b.D.D.D.B.B.D.x.U d h l E E h a 6X6X6X6X6X6X6X6X6X6X6X6X6X6X6X6X6X6X",
"6X6X6X6X6X6X6X6X6X6X6X6X6X6X6X6X6X6X6XX = y f f f R ,.v.D.D.D.D.D.D.D.D.B.m.m.C.m.B.B.B.D.D.D.D.D.B.m.&.~ d h l l k k s w 6X6X6X6X6X6X6X6X6X6X6X6X6X6X6X6X6X6X6X",
"6X6X6X6X6X6X6X6X6X6X6X6X6X6X6X6X6X6X6X6X6X# 6 f f f f Y / 5.c.m.C.D.D.D.D.B.D.D.B.B.B.B.D.D.D.n.4.) L h g k h k h h 8 6X6X6X6X6X6X6X6X6X6X6X6X6X6X6X6X6X6X6X6X6X",
"6X6X6X6X6X6X6X6X6X6X6X6X6X6X6X6X6X6X6X6X6X6X. % 7 f f f f g l ^ -.2.5.8.n.b.9.n.n.c.9.3.%.) W L h g j j j h g g 8 6X6X6X6X6X6X6X6X6X6X6X6X6X6X6X6X6X6X6X6X6X6X6X",
"6X6X6X6X6X6X6X6X6X6X6X6X6X6X6X6X6X6X6X6X6X6X6X6X. # 6 y f f f f f f j k Y Y k l E Y k g j g g g g g g h h u 3 6X6X6X6X6X6X6X6X6X6X6X6X6X6X6X6X6X6X6X6X6X6X6X6X6X",
"6X6X6X6X6X6X6X6X6X6X6X6X6X6X6X6X6X6X6X6X6X6X6X6X6X6X6XO & 6 9 f f f f f f f f f f f f f f g f g f f 0 6 % 6X6X6X6X6X6X6X6X6X6X6X6X6X6X6X6X6X6X6X6X6X6X6X6X6X6X6X",
"6X6X6X6X6X6X6X6X6X6X6X6X6X6X6X6X6X6X6X6X6X6X6X6X6X6X6X6X6X6Xo % * 6 y y f f f f f f f i i y 9 3 & $ 6X6X6X6X6X6X6X6X6X6X6X6X6X6X6X6X6X6X6X6X6X6X6X6X6X6X6X6X6X6X",
"6X6X6X6X6X6X6X6X6X6X6X6X6X6X6X6X6X6X6X6X6X6X6X6X6X6X6X6X6X6X6X6X6X6X. o O # % % % % % # O X 6X6X6X6X6X6X6X6X6X6X6X6X6X6X6X6X6X6X6X6X6X6X6X6X6X6X6X6X6X6X6X6X6X6X",
"6X6X6X6X6X6X6X6X6X6X6X6X6X6X6X6X6X6X6X6X6X6X6X6X6X6X6X6X6X6X6X6X6X6X6X6X6X6X6X6X6X6X6X6X6X6X6X6X6X6X6X6X6X6X6X6X6X6X6X6X6X6X6X6X6X6X6X6X6X6X6X6X6X6X6X6X6X6X6X6X",
"6X6X6X6X6X6X6X6X6X6X6X6X6X6X6X6X6X6X6X6X6X6X6X6X6X6X6X6X6X6X6X6X6X6X6X6X6X6X6X6X6X6X6X6X6X6X6X6X6X6X6X6X6X6X6X6X6X6X6X6X6X6X6X6X6X6X6X6X6X6X6X6X6X6X6X6X6X6X6X6X"
};
