/* XPM */
static char *logo[] = {
/* columns rows colors chars-per-pixel */
"32 31 111 2",
"   c #1E93CD",
".  c #1E97D1",
"X  c #2194CE",
"o  c #259DD6",
"O  c #399ED6",
"+  c #27A1D9",
"@  c #2AA2DA",
"#  c #32A3DB",
"$  c #36ACE1",
"%  c #3AADE2",
"&  c #44A6DD",
"*  c #4CA6DD",
"=  c #4BA8DF",
"-  c #44AEE3",
";  c #49ACE2",
":  c #50AEE5",
">  c #44B2E5",
",  c #4BB5E6",
"<  c #4DB4E9",
"1  c #4DB8E9",
"2  c #53B2E6",
"3  c #5BB4E7",
"4  c #5FBBE6",
"5  c #52B4E9",
"6  c #5CB6EA",
"7  c #55BAEB",
"8  c #5BBDED",
"9  c #5FBEF0",
"0  c #63BAE7",
"q  c #68BFE6",
"w  c #63B5E9",
"e  c #6CB3E8",
"r  c #66BAEC",
"t  c #6BBBED",
"y  c #73BAEE",
"u  c #61BFF1",
"i  c #68BEF0",
"p  c #75BEF1",
"a  c #61C0ED",
"s  c #6AC3EC",
"d  c #73C3E7",
"f  c #72C5ED",
"g  c #79C6EC",
"h  c #75C9EE",
"j  c #7DCBEE",
"k  c #65C0F1",
"l  c #6BC2F2",
"z  c #73C4F3",
"x  c #7BC4F4",
"c  c #7CC9F3",
"v  c #79C7F8",
"b  c #7EC9F9",
"n  c #82C9EB",
"m  c #89CDEC",
"M  c #92CDEE",
"N  c #8AD0EE",
"B  c #94D2EF",
"V  c #83C6F6",
"C  c #84CCF4",
"Z  c #8ACEF4",
"A  c #87C7F8",
"S  c #84CAFA",
"D  c #8CCCFA",
"F  c #93CEF3",
"G  c #98CFF4",
"H  c #92CEFB",
"J  c #8DD1F4",
"K  c #8ED0F9",
"L  c #94D3F3",
"P  c #9CD4F4",
"I  c #9FD9F3",
"U  c #94D1FC",
"Y  c #9BD4FC",
"T  c #ACDCEF",
"R  c #A1D5F3",
"E  c #A5DAF3",
"W  c #ACDDF1",
"Q  c #A1D6FB",
"!  c #A5D9FE",
"~  c #ABDCFE",
"^  c #B3DDF1",
"/  c #B0DFFD",
"(  c #ADE0F5",
")  c #B3E2F5",
"_  c #BAE3F4",
"`  c #B5E1FA",
"'  c #BBE5FB",
"]  c #BEE8F8",
"[  c #C3E4F3",
"{  c #C9E6F4",
"}  c #C4E9F6",
"|  c #CCEAF6",
" . c #C3E7FA",
".. c #C4E9FC",
"X. c #CDEEFB",
"o. c #D4EDF7",
"O. c #D9EEF7",
"+. c #D4EEFB",
"@. c #D8EFFC",
"#. c #CCF2FB",
"$. c #D4F3FC",
"%. c #DAF3FC",
"&. c #D6F9FF",
"*. c #DBFAFF",
"=. c #E4F5FB",
"-. c #E9F7FC",
";. c #E4FBFF",
":. c #EBFCFF",
">. c #F4FDFF",
",. c #FBFEFF",
"<. c None",
/* pixels */
"<.<.<.<.<.<.<.<.<.<.<.<.<.<.<.<.<.<.<.<.<.<.<.<.<.<.<.<.<.<.<.<.",
"<.<.<.<.<.<.<.<.<.<.<.<.H D D D D H Y Y <.<.<.<.<.<.<.<.<.<.<.<.",
"<.<.<.<.<.<.<.<.<.V A b i r 0 r 0 3 6 t V U ~ <.<.<.<.<.<.<.<.<.",
"<.<.<.<.<.<.<.<.A x t d M E _ _ ) W C q , 2 x Y <.<.<.<.<.<.<.<.",
"<.<.<.<.<.<.y A s g E | o.O.,.,.,.,.o.E ( s > 3 H ~ <.<.<.<.<.<.",
"<.<.<.<.<.y A f B | -.,.@.O.,.,.,.,.o.^ >.%.B > ; A ~ <.<.<.<.<.",
"<.<.<.<.e A z R o.>.>.>.| O.,.,.,.,.o.T :.:.:.) , ; D / <.<.<.<.",
"<.<.<.<.b h I O.>.>.>.>.| { o.[ [ o._ T >.:.:.:.) > : H <.<.<.<.",
"<.<.<.y c L | >.>.>.>.=.) m j h s s s n o.:.:.:.:.E % t ! <.<.<.",
"<.<.<.v C _ :.>.>.>.=.E N j h s s a 4 7 s _ ;.:.;.;.h - A <.<.<.",
"<.<.w c I O.>.>.>.=.E J C j j j h s 8 7 1 4 _ :.:.:.] , t ! <.<.",
"<.<.i C _ :.:.>.:.' J m n E @.=.=.#.E 8 7 5 d %.;.:.*.h 2 Y <.<.",
"<.<.l L | >.>.:.%.I J C c | ,.,.,.,.o.a 8 7 7 W :.;.:.I 5 D <.<.",
"<.* z Q o.:.:.>...L J C j { ,.,.>.,.+.k 9 9 9 m ;.;.:.' 6 p ~ <.",
"<.= z E %.:.:.:.` J J C c [ ,.,.,.,.+.l k k r g *.;.:.X.i p ! <.",
"<.= z E o.:.:.:.( K K C c { ,.>.>.>.$.z l l l g %.;.;.$.i p ! <.",
"<.# z E o.:.:.;.` K K C c [ ,.,.>.,.+.v z z z c %.;.;.#.z p Y <.",
"<.O l R } ;.;.;...K K D V [ ,.>.>.,.+.b v v v L *.;.;...p x Y <.",
"<.<.8 Y ) =.;.;.$.Y D K C [ >.>.>.>.+.S b S c ) ;.;.;.` t x <.<.",
"<.<.- J E $.;.*.*.' H D D [ ,.>.>.>.%.D S A M %.;.*.*.Y t v <.<.",
"<.<.# x Y _ *.*.*.%.~ U D [ >.>.>.,.@.H D D } *.*.;.X.A e b <.<.",
"<.<.<., Y R #.*.&.*.$.` H [ >.>.>.>.%.H L } ;.*.*.*.! y i <.<.<.",
"<.<.<.# h Y R $.&.&.&.&./ [ >.>.>.>.@.R +.*.*.*.*.' A 6 l <.<.<.",
"<.<.<.<.# C U E $.&.&.&.' [ >.>.>.>.@.E &.&.&.*...H w 8 <.<.<.<.",
"<.<.<.<.X > C H P } &.&.] [ >.>.>.>.%.E &.&.$.` H r 5 9 <.<.<.<.",
"<.<.<.<.<.X > C U F ) #.' [ >.>.>.>.@.E $. .! A w < 1 <.<.<.<.<.",
"<.<.<.<.<.<.  $ l D D L P ^ =.=.=.=. .M P H x 5 - > <.<.<.<.<.<.",
"<.<.<.<.<.<.<.<.+ > l S K Z F G G F H A z 6 > % <.<.<.<.<.<.<.<.",
"<.<.<.<.<.<.<.<.<.. + % 1 9 l l l u 7 > $ $ o <.<.<.<.<.<.<.<.<.",
"<.<.<.<.<.<.<.<.<.<.<.<.. o + @ @ @ + o <.<.<.<.<.<.<.<.<.<.<.<.",
"<.<.<.<.<.<.<.<.<.<.<.<.<.<.<.<.<.<.<.<.<.<.<.<.<.<.<.<.<.<.<.<."
};
