<?xml version="1.0" encoding="iso-8859-1"?>
<!DOCTYPE svg PUBLIC "-//W3C//DTD SVG 1.1//EN" "http://www.w3.org/Graphics/SVG/1.1/DTD/svg11.dtd">
<svg version="1.1" id="Capa_1" xmlns="http://www.w3.org/2000/svg" xmlns:xlink="http://www.w3.org/1999/xlink" x="0px" y="0px"
	 width="335.747px" height="335.747px" viewBox="-48 -48 455.747 455.747" style="fill:#1aa8ea"
	 xml:space="preserve">
<g transform="rotate(-45 167 167)">
	<g>
		<path d="M349.243,270.747l-108.709-43.009c-3.707-1.467-7.93-0.592-10.75,2.228c-2.818,2.82-3.693,7.043-2.228,10.75
			l43.009,108.71c1.455,3.676,4.938,6.15,8.887,6.313c0.139,0.005,0.277,0.008,0.414,0.008c3.791,0,7.271-2.149,8.963-5.568
			l20.236-40.932l40.932-20.235c3.543-1.753,5.723-5.428,5.559-9.377C355.394,275.684,352.919,272.201,349.243,270.747z"/>
	</g>
</g>
<g transform="rotate(-225 167 167)">
<g>
		<path d="M349.243,270.747l-108.709-43.009c-3.707-1.467-7.93-0.592-10.75,2.228c-2.818,2.82-3.693,7.043-2.228,10.75
			l43.009,108.71c1.455,3.676,4.938,6.15,8.887,6.313c0.139,0.005,0.277,0.008,0.414,0.008c3.791,0,7.271-2.149,8.963-5.568
			l20.236-40.932l40.932-20.235c3.543-1.753,5.723-5.428,5.559-9.377C355.394,275.684,352.919,272.201,349.243,270.747z"/>
</g>
</g>
<g>
</g>
<g>
</g>
<g>
</g>
<g>
</g>
<g>
</g>
<g>
</g>
<g>
</g>
<g>
</g>
<g>
</g>
<g>
</g>
<g>
</g>
<g>
</g>
<g>
</g>
<g>
</g>
</svg>
