<?xml version="1.0" standalone="no"?>
<!DOCTYPE svg PUBLIC "-//W3C//DTD SVG 20010904//EN"
  "http://www.w3.org/TR/2001/REC-SVG-20010904/DTD/svg10.dtd">
 <svg   xmlns="http://www.w3.org/2000/svg"
        x="0px" y="0px" viewBox="0 0 24 24" fill="#45e283">
            <g> 
                <path d="M12,0C5.4,0,0,5.4,0,12s5.4,12,12,12s12-5.4,12-12S18.6,0,12,0z M18.7,8.7l-8,8C10.5,16.9,10.3,17,10,17 s-0.5-0.1-0.7-0.3l-4-4c-0.4-0.4-0.4-1,0-1.4s1-0.4,1.4,0l3.3,3.3l7.3-7.3c0.4-0.4,1-0.4,1.4,0S19.1,8.3,18.7,8.7z"></path> 
            </g>
        </svg>
