<?xml version="1.0" encoding="iso-8859-1"?>
<!DOCTYPE svg PUBLIC "-//W3C//DTD SVG 1.1//EN" "http://www.w3.org/Graphics/SVG/1.1/DTD/svg11.dtd">
<svg version="1.1" id="Capa_1" xmlns="http://www.w3.org/2000/svg" xmlns:xlink="http://www.w3.org/1999/xlink" x="0px" y="0px"
	 width="335.747px" height="335.747px" viewBox="-20 -20 375.747 375.747" style="fill:#1aa8ea"
	 xml:space="preserve">
<g transform="rotate(000 000 000)">
	<g>
		<path d="M349.243,270.747l-108.709-43.009c-3.707-1.467-7.93-0.592-10.75,2.228c-2.818,2.82-3.693,7.043-2.228,10.75
			l43.009,108.71c1.455,3.676,4.938,6.15,8.887,6.313c0.139,0.005,0.277,0.008,0.414,0.008c3.791,0,7.271-2.149,8.963-5.568
			l20.236-40.932l40.932-20.235c3.543-1.753,5.723-5.428,5.559-9.377C355.394,275.684,352.919,272.201,349.243,270.747z"/>
		<path d="M167.534,304.014c-75.357,0-136.664-61.306-136.664-136.662S92.177,30.688,167.534,30.688
			c75.354,0,136.663,61.307,136.663,136.664c0,16.302-2.875,31.943-8.133,46.453L324.61,225.1
			c6.643-18.01,10.273-37.461,10.273-57.748C334.884,75.075,259.812,0,167.533,0C75.254,0,0.183,75.074,0.183,167.352
			s75.074,167.351,167.352,167.351c20.285,0,39.738-3.63,57.746-10.272l-11.295-28.548
			C199.478,301.141,183.835,304.014,167.534,304.014z"/>
	</g>
</g>
<g>
</g>
<g>
</g>
<g>
</g>
<g>
</g>
<g>
</g>
<g>
</g>
<g>
</g>
<g>
</g>
<g>
</g>
<g>
</g>
<g>
</g>
<g>
</g>
<g>
</g>
<g>
</g>
<g>
</g>
</svg>
