<?xml version="1.0" standalone="no"?>
<!DOCTYPE svg PUBLIC "-//W3C//DTD SVG 20010904//EN"
  "http://www.w3.org/TR/2001/REC-SVG-20010904/DTD/svg10.dtd">
 <svg   xmlns="http://www.w3.org/2000/svg"
   xmlns:xlink="http://www.w3.org/1999/xlink"
        x="0px" y="0px" viewBox="0 0 24 24"  fill="#b3b3b3">
            <g> 
                <path d="M12,8c-1.5,0-2.8,0.4-4,1.1V6c0-2.2,1.8-4,4-4s4,1.8,4,4c0,0.6,0.4,1,1,1s1-0.4,1-1c0-3.3-2.7-6-6-6 S6,2.7,6,6v4.7C4.8,12.1,4,14,4,16c0,4.4,3.6,8,8,8s8-3.6,8-8S16.4,8,12,8z M13,17.8V19c0,0.6-0.4,1-1,1s-1-0.4-1-1v-1.2 c-1.2-0.4-2-1.5-2-2.8c0-1.7,1.3-3,3-3s3,1.3,3,3C15,16.3,14.2,17.4,13,17.8z"></path> 
            </g>
        </svg>
